<svg xmlns="http://www.w3.org/2000/svg" xmlns:xlink="http://www.w3.org/1999/xlink" width="500" zoomAndPan="magnify" viewBox="0 0 375 374.999991" height="500" preserveAspectRatio="xMidYMid meet" version="1.0"><defs><g/><clipPath id="cdaa066d18"><path d="M 66.710938 66.710938 L 308.210938 66.710938 L 308.210938 308.210938 L 66.710938 308.210938 Z M 66.710938 66.710938 " clip-rule="nonzero"/></clipPath><clipPath id="28d2047bbb"><path d="M 81.3125 177.460938 L 102.3125 177.460938 L 102.3125 197.710938 L 81.3125 197.710938 Z M 81.3125 177.460938 " clip-rule="nonzero"/></clipPath><clipPath id="d0ec4a96c8"><path d="M 271.695312 177.460938 L 292.695312 177.460938 L 292.695312 197.710938 L 271.695312 197.710938 Z M 271.695312 177.460938 " clip-rule="nonzero"/></clipPath><clipPath id="e7b34f09f0"><path d="M 133.609375 135.761719 L 241.609375 135.761719 L 241.609375 219 L 133.609375 219 Z M 133.609375 135.761719 " clip-rule="nonzero"/></clipPath></defs><rect x="-37.5" width="450" fill="#ffffff" y="-37.499999" height="449.999989" fill-opacity="1"/><rect x="-37.5" width="450" fill="#ffffff" y="-37.499999" height="449.999989" fill-opacity="1"/><g clip-path="url(#cdaa066d18)"><path fill="#000000" d="M 187.5 308.277344 C 120.828125 308.277344 66.703125 254.148438 66.703125 187.488281 C 66.703125 120.828125 120.828125 66.703125 187.5 66.703125 C 254.160156 66.703125 308.277344 120.828125 308.277344 187.488281 C 308.277344 254.148438 254.160156 308.277344 187.5 308.277344 Z M 187.5 305.65625 C 252.710938 305.65625 305.660156 252.707031 305.660156 187.488281 C 305.660156 122.269531 252.710938 69.320312 187.5 69.320312 C 122.277344 69.320312 69.320312 122.269531 69.320312 187.488281 C 69.320312 252.707031 122.277344 305.65625 187.5 305.65625 Z M 261.558594 187.488281 C 261.558594 189.3125 260.074219 190.796875 258.25 190.796875 C 256.4375 190.796875 254.953125 189.3125 254.953125 187.488281 C 254.953125 185.664062 256.4375 184.191406 258.25 184.191406 C 260.074219 184.191406 261.558594 185.664062 261.558594 187.488281 Z M 119.914062 157.03125 C 119.617188 157.683594 118.847656 157.972656 118.183594 157.675781 C 117.53125 157.378906 117.234375 156.601562 117.53125 155.949219 C 129.574219 129.3125 156.386719 110.757812 187.5 110.757812 C 218.601562 110.757812 245.414062 129.3125 257.457031 155.949219 C 257.753906 156.601562 257.457031 157.378906 256.800781 157.675781 C 256.140625 157.972656 255.371094 157.683594 255.066406 157.03125 C 243.441406 131.292969 217.546875 113.375 187.5 113.375 C 157.441406 113.375 131.546875 131.292969 119.914062 157.03125 Z M 255.066406 217.957031 C 255.371094 217.292969 256.140625 217.003906 256.800781 217.300781 C 257.457031 217.597656 257.753906 218.375 257.457031 219.03125 C 245.414062 245.664062 218.601562 264.21875 187.5 264.21875 C 156.386719 264.21875 129.574219 245.664062 117.53125 219.03125 C 117.234375 218.375 117.53125 217.597656 118.183594 217.300781 C 118.847656 217.003906 119.617188 217.292969 119.914062 217.957031 C 131.546875 243.683594 157.441406 261.601562 187.5 261.601562 C 217.546875 261.601562 243.441406 243.683594 255.066406 217.957031 Z M 120.035156 187.488281 C 120.035156 189.3125 118.550781 190.796875 116.738281 190.796875 C 114.902344 190.796875 113.429688 189.3125 113.429688 187.488281 C 113.429688 185.664062 114.902344 184.191406 116.738281 184.191406 C 118.550781 184.191406 120.035156 185.664062 120.035156 187.488281 Z M 120.035156 187.488281 " fill-opacity="1" fill-rule="evenodd"/></g><g clip-path="url(#28d2047bbb)"><path fill="#ff3d83" d="M 91.871094 177.460938 L 94.585938 183.570312 C 94.691406 183.804688 94.855469 184.007812 95.066406 184.160156 C 95.273438 184.308594 95.515625 184.402344 95.773438 184.429688 L 102.425781 185.128906 L 97.453125 189.601562 C 97.261719 189.773438 97.117188 189.992188 97.039062 190.238281 C 96.960938 190.480469 96.945312 190.742188 97 190.992188 L 98.390625 197.535156 L 92.601562 194.1875 C 92.378906 194.058594 92.125 193.992188 91.871094 193.992188 C 91.613281 193.992188 91.359375 194.058594 91.136719 194.1875 L 85.347656 197.535156 L 86.738281 190.992188 C 86.792969 190.742188 86.78125 190.480469 86.699219 190.238281 C 86.621094 189.992188 86.476562 189.773438 86.289062 189.601562 L 81.316406 185.128906 L 87.96875 184.429688 C 88.222656 184.402344 88.46875 184.308594 88.675781 184.160156 C 88.882812 184.007812 89.046875 183.804688 89.152344 183.570312 Z M 91.871094 177.460938 " fill-opacity="1" fill-rule="evenodd"/></g><g clip-path="url(#d0ec4a96c8)"><path fill="#ff3d83" d="M 282.253906 177.460938 L 284.972656 183.570312 C 285.074219 183.804688 285.238281 184.007812 285.449219 184.160156 C 285.65625 184.308594 285.898438 184.402344 286.15625 184.429688 L 292.808594 185.128906 L 287.835938 189.601562 C 287.644531 189.773438 287.5 189.992188 287.421875 190.238281 C 287.34375 190.480469 287.328125 190.742188 287.382812 190.992188 L 288.777344 197.535156 L 282.984375 194.1875 C 282.761719 194.058594 282.507812 193.992188 282.253906 193.992188 C 281.996094 193.992188 281.742188 194.058594 281.519531 194.1875 L 275.730469 197.535156 L 277.121094 190.992188 C 277.175781 190.742188 277.164062 190.480469 277.082031 190.238281 C 277.003906 189.992188 276.863281 189.773438 276.671875 189.601562 L 271.699219 185.128906 L 278.351562 184.429688 C 278.605469 184.402344 278.851562 184.308594 279.058594 184.160156 C 279.265625 184.007812 279.429688 183.804688 279.535156 183.570312 Z M 282.253906 177.460938 " fill-opacity="1" fill-rule="evenodd"/></g><g clip-path="url(#e7b34f09f0)"><path fill="#000000" d="M 152.8125 181.5625 C 152.871094 181.097656 153.296875 180.765625 153.765625 180.824219 C 157.828125 181.332031 161.898438 182.125 165.859375 183.175781 C 170.675781 184.453125 175.421875 186.140625 179.972656 188.1875 C 180.402344 188.382812 180.589844 188.882812 180.398438 189.3125 C 180.253906 189.625 179.945312 189.808594 179.621094 189.808594 C 179.503906 189.808594 179.382812 189.785156 179.269531 189.734375 C 174.804688 187.722656 170.148438 186.066406 165.421875 184.816406 C 161.535156 183.785156 157.542969 183.007812 153.550781 182.507812 C 153.085938 182.453125 152.753906 182.027344 152.8125 181.5625 Z M 161.828125 173.152344 C 161.367188 173.050781 160.914062 173.339844 160.816406 173.800781 C 160.714844 174.257812 161.003906 174.710938 161.464844 174.808594 C 162.789062 175.097656 164.117188 175.417969 165.421875 175.761719 C 170.144531 177.015625 174.804688 178.671875 179.269531 180.683594 C 179.382812 180.734375 179.503906 180.757812 179.621094 180.757812 C 179.945312 180.757812 180.253906 180.574219 180.398438 180.261719 C 180.589844 179.832031 180.402344 179.328125 179.972656 179.136719 C 175.421875 177.085938 170.675781 175.402344 165.859375 174.125 C 164.53125 173.769531 163.175781 173.445312 161.828125 173.152344 Z M 240.960938 210.183594 C 241.609375 212.277344 241.234375 214.488281 239.933594 216.246094 C 238.648438 217.980469 236.679688 218.976562 234.53125 218.976562 L 140.6875 218.976562 C 138.539062 218.976562 136.570312 217.980469 135.289062 216.246094 C 133.984375 214.488281 133.609375 212.277344 134.261719 210.183594 L 136.523438 202.890625 C 136.242188 202.886719 135.960938 202.882812 135.679688 202.882812 C 135.433594 202.882812 135.199219 202.777344 135.039062 202.589844 C 134.875 202.402344 134.804688 202.15625 134.839844 201.914062 L 142.828125 147.605469 C 142.878906 147.277344 143.113281 147.003906 143.433594 146.914062 L 149.640625 145.128906 L 150.816406 136.550781 C 150.878906 136.109375 151.269531 135.789062 151.714844 135.820312 C 157.839844 136.222656 163.941406 137.246094 169.859375 138.863281 C 175.984375 140.539062 181.953125 142.859375 187.609375 145.765625 C 193.265625 142.859375 199.234375 140.539062 205.359375 138.863281 C 211.277344 137.246094 217.382812 136.222656 223.503906 135.820312 C 223.949219 135.789062 224.34375 136.109375 224.402344 136.550781 L 225.578125 145.128906 L 231.785156 146.914062 C 232.105469 147.003906 232.34375 147.277344 232.390625 147.605469 L 240.378906 201.914062 C 240.417969 202.15625 240.34375 202.402344 240.183594 202.589844 C 240.023438 202.777344 239.785156 202.882812 239.539062 202.882812 C 239.257812 202.886719 238.976562 202.886719 238.695312 202.890625 Z M 225.832031 146.964844 L 232.394531 194.878906 C 232.425781 195.121094 232.351562 195.363281 232.195312 195.550781 C 232.035156 195.734375 231.804688 195.839844 231.558594 195.84375 C 224.214844 195.945312 216.894531 196.949219 209.796875 198.832031 C 202.351562 200.808594 195.175781 203.746094 188.460938 207.558594 L 188.460938 208.929688 C 196.621094 206.421875 205.019531 204.5 213.445312 203.207031 C 221.726562 201.941406 230.167969 201.261719 238.554688 201.191406 L 230.785156 148.390625 Z M 213.703125 204.886719 C 206.90625 205.925781 200.125 207.386719 193.476562 209.230469 L 234.878906 209.230469 C 235.160156 208.109375 235.441406 206.980469 235.71875 205.847656 C 235.964844 204.867188 236.207031 203.894531 236.449219 202.921875 C 228.84375 203.078125 221.207031 203.734375 213.703125 204.886719 Z M 188.460938 147.242188 L 188.460938 205.609375 C 195.0625 201.953125 202.082031 199.125 209.359375 197.191406 C 216.28125 195.355469 223.414062 194.339844 230.574219 194.164062 L 229.792969 188.441406 L 222.824219 137.566406 C 217.082031 137.996094 211.363281 138.984375 205.8125 140.5 C 199.828125 142.136719 193.992188 144.40625 188.460938 147.242188 Z M 169.410156 140.5 C 163.859375 138.984375 158.136719 137.996094 152.398438 137.570312 L 145.429688 188.441406 L 144.644531 194.164062 C 151.808594 194.339844 158.941406 195.355469 165.859375 197.191406 C 173.136719 199.125 180.160156 201.953125 186.757812 205.609375 L 186.757812 147.242188 C 181.226562 144.40625 175.394531 142.136719 169.410156 140.5 Z M 136.667969 201.191406 C 145.050781 201.261719 153.492188 201.9375 161.777344 203.207031 C 170.203125 204.5 178.601562 206.421875 186.757812 208.929688 L 186.757812 207.558594 C 180.042969 203.746094 172.867188 200.808594 165.421875 198.832031 C 158.328125 196.949219 151.003906 195.945312 143.660156 195.84375 C 143.414062 195.839844 143.183594 195.734375 143.027344 195.550781 C 142.867188 195.363281 142.792969 195.121094 142.828125 194.878906 L 149.390625 146.964844 L 144.433594 148.390625 Z M 161.515625 204.886719 C 154.011719 203.734375 146.375 203.078125 138.773438 202.921875 C 139.015625 203.894531 139.257812 204.871094 139.5 205.847656 C 139.78125 206.980469 140.0625 208.109375 140.34375 209.230469 L 181.746094 209.230469 C 175.097656 207.386719 168.316406 205.925781 161.515625 204.886719 Z M 140.6875 217.277344 L 186.757812 217.277344 L 186.757812 210.929688 L 139.675781 210.929688 C 139.285156 210.929688 138.945312 210.664062 138.851562 210.285156 C 138.515625 208.953125 138.183594 207.605469 137.847656 206.253906 C 137.761719 205.90625 137.675781 205.558594 137.585938 205.210938 L 135.886719 210.683594 C 135.398438 212.257812 135.679688 213.917969 136.660156 215.238281 C 137.617188 216.535156 139.085938 217.277344 140.6875 217.277344 Z M 239.332031 210.683594 L 237.632812 205.210938 C 237.546875 205.558594 237.460938 205.90625 237.375 206.253906 C 237.039062 207.605469 236.703125 208.953125 236.371094 210.285156 C 236.273438 210.664062 235.933594 210.929688 235.542969 210.929688 L 188.460938 210.929688 L 188.460938 217.277344 L 234.53125 217.277344 C 236.132812 217.277344 237.601562 216.535156 238.5625 215.238281 C 239.539062 213.917969 239.820312 212.257812 239.332031 210.683594 Z M 195.25 188.1875 C 194.820312 188.382812 194.628906 188.882812 194.824219 189.3125 C 194.964844 189.625 195.273438 189.808594 195.601562 189.808594 C 195.71875 189.808594 195.835938 189.785156 195.949219 189.734375 C 200.414062 187.722656 205.074219 186.070312 209.800781 184.816406 C 213.683594 183.785156 217.679688 183.007812 221.667969 182.511719 C 222.136719 182.453125 222.464844 182.027344 222.40625 181.5625 C 222.351562 181.097656 221.921875 180.769531 221.457031 180.824219 C 217.390625 181.332031 213.320312 182.125 209.359375 183.175781 C 204.546875 184.453125 199.796875 186.140625 195.25 188.1875 Z M 194.824219 180.261719 C 194.964844 180.574219 195.273438 180.757812 195.601562 180.757812 C 195.71875 180.757812 195.835938 180.734375 195.949219 180.683594 C 200.414062 178.671875 205.074219 177.015625 209.800781 175.765625 C 211.101562 175.417969 212.433594 175.097656 213.753906 174.808594 C 214.214844 174.710938 214.507812 174.257812 214.40625 173.800781 C 214.304688 173.34375 213.851562 173.050781 213.394531 173.152344 C 212.046875 173.445312 210.6875 173.769531 209.359375 174.125 C 204.546875 175.402344 199.796875 177.089844 195.25 179.136719 C 194.820312 179.332031 194.628906 179.832031 194.824219 180.261719 Z M 192.222656 153.976562 C 192.191406 153.507812 192.546875 153.105469 193.015625 153.070312 L 195.007812 152.929688 C 197.34375 152.765625 199.613281 153.523438 201.390625 155.0625 C 203.191406 156.621094 204.277344 158.796875 204.441406 161.183594 C 204.78125 166.074219 201.101562 170.332031 196.242188 170.675781 L 194.25 170.816406 C 194.230469 170.816406 194.207031 170.816406 194.1875 170.816406 C 193.984375 170.816406 193.785156 170.742188 193.628906 170.609375 C 193.460938 170.460938 193.355469 170.253906 193.339844 170.027344 Z M 193.980469 154.703125 L 194.980469 169.0625 L 196.121094 168.980469 C 200.046875 168.707031 203.019531 165.257812 202.742188 161.300781 C 202.609375 159.367188 201.730469 157.605469 200.273438 156.34375 C 198.839844 155.101562 197.011719 154.492188 195.125 154.625 Z M 207.574219 169.628906 C 207.730469 169.761719 207.929688 169.835938 208.136719 169.835938 C 208.15625 169.835938 208.175781 169.835938 208.195312 169.832031 L 218.15625 169.132812 C 218.625 169.097656 218.980469 168.691406 218.945312 168.226562 C 218.914062 167.757812 218.507812 167.402344 218.035156 167.4375 L 208.925781 168.082031 L 208.464844 161.46875 L 217.601562 160.804688 C 218.070312 160.773438 218.421875 160.367188 218.390625 159.898438 C 218.355469 159.429688 217.945312 159.078125 217.476562 159.113281 L 208.347656 159.773438 L 207.929688 153.722656 L 217.042969 153.078125 C 217.511719 153.046875 217.863281 152.640625 217.832031 152.171875 C 217.796875 151.707031 217.394531 151.351562 216.921875 151.386719 L 206.960938 152.089844 C 206.492188 152.121094 206.136719 152.527344 206.171875 152.992188 L 207.285156 169.046875 C 207.300781 169.269531 207.40625 169.480469 207.574219 169.628906 Z M 170.777344 160.691406 C 170.988281 157.671875 172.160156 154.960938 173.910156 153.445312 C 174.921875 152.566406 176.070312 152.148438 177.226562 152.230469 C 180.496094 152.460938 182.785156 156.535156 182.441406 161.511719 C 182.230469 164.53125 181.058594 167.242188 179.308594 168.757812 C 178.378906 169.5625 177.335938 169.984375 176.273438 169.984375 C 176.179688 169.984375 176.085938 169.980469 175.992188 169.972656 C 172.722656 169.742188 170.433594 165.667969 170.777344 160.691406 Z M 176.113281 168.28125 C 176.992188 168.34375 177.730469 167.878906 178.191406 167.476562 C 179.589844 166.269531 180.566406 163.9375 180.742188 161.394531 C 181.011719 157.5 179.347656 154.078125 177.105469 153.921875 C 177.054688 153.917969 177 153.917969 176.949219 153.917969 C 176.140625 153.917969 175.460938 154.347656 175.027344 154.726562 C 173.632812 155.933594 172.65625 158.265625 172.480469 160.808594 C 172.207031 164.703125 173.871094 168.125 176.113281 168.28125 Z M 163.539062 169.097656 C 163.648438 169.105469 163.757812 169.109375 163.867188 169.109375 C 165.359375 169.109375 166.816406 168.390625 168 167.0625 C 168.3125 166.710938 168.28125 166.175781 167.929688 165.863281 C 167.578125 165.554688 167.039062 165.585938 166.726562 165.9375 C 165.816406 166.957031 164.726562 167.476562 163.660156 167.402344 C 161.152344 167.226562 159.257812 163.789062 159.527344 159.898438 C 159.699219 157.457031 160.660156 155.253906 162.101562 154.007812 C 162.898438 153.316406 163.78125 152.984375 164.65625 153.042969 C 165.953125 153.136719 166.855469 154.035156 167.382812 154.769531 C 167.65625 155.152344 168.1875 155.242188 168.570312 154.96875 C 168.953125 154.699219 169.042969 154.167969 168.769531 153.785156 C 167.722656 152.324219 166.304688 151.460938 164.777344 151.351562 C 163.441406 151.261719 162.128906 151.734375 160.984375 152.726562 C 159.207031 154.261719 158.03125 156.898438 157.828125 159.78125 C 157.488281 164.671875 160.050781 168.851562 163.539062 169.097656 Z M 163.539062 169.097656 " fill-opacity="1" fill-rule="nonzero"/></g><g fill="#000000" fill-opacity="1"><g transform="translate(106.036897, 145.952353)"><g><path d="M -12.75 -10 L -9.84375 -14.671875 C -9 -16.046875 -8.175781 -17.019531 -7.375 -17.59375 C -6.570312 -18.175781 -5.734375 -18.425781 -4.859375 -18.34375 C -3.984375 -18.269531 -2.976562 -17.878906 -1.84375 -17.171875 C -0.644531 -16.429688 0.179688 -15.664062 0.640625 -14.875 C 1.109375 -14.082031 1.253906 -13.195312 1.078125 -12.21875 C 0.910156 -11.25 0.425781 -10.113281 -0.375 -8.8125 L -1.421875 -7.140625 L 2.796875 -4.515625 L 0.9375 -1.515625 Z M -3.03125 -9.90625 C -2.601562 -10.601562 -2.332031 -11.1875 -2.21875 -11.65625 C -2.113281 -12.125 -2.179688 -12.550781 -2.421875 -12.9375 C -2.660156 -13.332031 -3.082031 -13.71875 -3.6875 -14.09375 C -4.570312 -14.644531 -5.304688 -14.820312 -5.890625 -14.625 C -6.484375 -14.425781 -7.09375 -13.820312 -7.71875 -12.8125 L -8.515625 -11.53125 L -3.828125 -8.625 Z M -3.03125 -9.90625 "/></g></g></g><g fill="#000000" fill-opacity="1"><g transform="translate(114.939619, 131.901701)"><g><path d="M 7.3125 -7.984375 L 0.4375 -9.171875 L -0.734375 -7.890625 L 3.59375 -3.921875 L 1.203125 -1.3125 L -10.671875 -12.1875 L -6.96875 -16.234375 C -5.5 -17.835938 -4.144531 -18.738281 -2.90625 -18.9375 C -1.664062 -19.144531 -0.363281 -18.625 1 -17.375 C 1.976562 -16.476562 2.582031 -15.585938 2.8125 -14.703125 C 3.050781 -13.828125 2.9375 -12.898438 2.46875 -11.921875 L 10.125 -11.046875 Z M -1.71875 -10.703125 C -1.164062 -11.296875 -0.78125 -11.8125 -0.5625 -12.25 C -0.351562 -12.6875 -0.3125 -13.101562 -0.4375 -13.5 C -0.5625 -13.894531 -0.875 -14.320312 -1.375 -14.78125 C -1.84375 -15.21875 -2.269531 -15.46875 -2.65625 -15.53125 C -3.039062 -15.601562 -3.429688 -15.507812 -3.828125 -15.25 C -4.222656 -15 -4.703125 -14.566406 -5.265625 -13.953125 L -6.21875 -12.90625 L -2.671875 -9.65625 Z M -1.71875 -10.703125 "/></g></g></g><g fill="#000000" fill-opacity="1"><g transform="translate(126.409036, 119.480963)"><g><path d="M 7.140625 -4.90625 C 5.804688 -3.9375 4.566406 -3.335938 3.421875 -3.109375 C 2.273438 -2.890625 1.125 -3.097656 -0.03125 -3.734375 C -1.195312 -4.378906 -2.40625 -5.566406 -3.65625 -7.296875 C -4.914062 -9.023438 -5.675781 -10.539062 -5.9375 -11.84375 C -6.195312 -13.144531 -6.039062 -14.300781 -5.46875 -15.3125 C -4.90625 -16.320312 -3.957031 -17.3125 -2.625 -18.28125 C -1.289062 -19.257812 -0.0546875 -19.863281 1.078125 -20.09375 C 2.222656 -20.332031 3.375 -20.125 4.53125 -19.46875 C 5.695312 -18.820312 6.910156 -17.632812 8.171875 -15.90625 C 9.421875 -14.175781 10.175781 -12.664062 10.4375 -11.375 C 10.695312 -10.082031 10.546875 -8.925781 9.984375 -7.90625 C 9.421875 -6.882812 8.472656 -5.882812 7.140625 -4.90625 Z M 5.390625 -7.296875 C 6.179688 -7.878906 6.6875 -8.457031 6.90625 -9.03125 C 7.125 -9.613281 7.09375 -10.265625 6.8125 -10.984375 C 6.53125 -11.703125 5.988281 -12.617188 5.1875 -13.734375 C 4.375 -14.847656 3.660156 -15.65625 3.046875 -16.15625 C 2.441406 -16.65625 1.828125 -16.894531 1.203125 -16.875 C 0.578125 -16.851562 -0.128906 -16.550781 -0.921875 -15.96875 C -1.710938 -15.394531 -2.210938 -14.8125 -2.421875 -14.21875 C -2.628906 -13.632812 -2.585938 -12.976562 -2.296875 -12.25 C -2.003906 -11.519531 -1.453125 -10.597656 -0.640625 -9.484375 C 0.160156 -8.367188 0.859375 -7.566406 1.453125 -7.078125 C 2.054688 -6.585938 2.660156 -6.351562 3.265625 -6.375 C 3.878906 -6.40625 4.585938 -6.710938 5.390625 -7.296875 Z M 5.390625 -7.296875 "/></g></g></g><g fill="#000000" fill-opacity="1"><g transform="translate(141.985499, 108.421311)"><g><path d="M 8.546875 -3.609375 C 6.921875 -2.878906 5.488281 -2.488281 4.25 -2.4375 C 3.019531 -2.382812 1.878906 -2.785156 0.828125 -3.640625 C -0.222656 -4.492188 -1.203125 -5.910156 -2.109375 -7.890625 C -3.335938 -10.609375 -3.585938 -12.828125 -2.859375 -14.546875 C -2.140625 -16.265625 -0.585938 -17.664062 1.796875 -18.75 C 2.523438 -19.082031 3.28125 -19.363281 4.0625 -19.59375 C 4.84375 -19.832031 5.488281 -19.972656 6 -20.015625 L 7.265625 -17.21875 C 6.015625 -17.113281 4.695312 -16.75 3.3125 -16.125 C 2.34375 -15.6875 1.628906 -15.191406 1.171875 -14.640625 C 0.722656 -14.085938 0.507812 -13.394531 0.53125 -12.5625 C 0.5625 -11.726562 0.851562 -10.703125 1.40625 -9.484375 C 1.988281 -8.191406 2.566406 -7.253906 3.140625 -6.671875 C 3.710938 -6.085938 4.335938 -5.785156 5.015625 -5.765625 C 5.691406 -5.742188 6.535156 -5.960938 7.546875 -6.421875 C 8.210938 -6.722656 8.710938 -7.003906 9.046875 -7.265625 L 7.609375 -10.4375 L 5.109375 -9.3125 L 3.890625 -11.984375 L 9.359375 -14.453125 L 13 -6.421875 C 12.507812 -5.984375 11.863281 -5.503906 11.0625 -4.984375 C 10.257812 -4.460938 9.421875 -4.003906 8.546875 -3.609375 Z M 8.546875 -3.609375 "/></g></g></g><g fill="#000000" fill-opacity="1"><g transform="translate(158.416373, 101.216373)"><g><path d="M 10.53125 -2.5 L 5.5 -7.34375 L 3.8125 -6.9375 L 5.171875 -1.21875 L 1.734375 -0.40625 L -1.984375 -16.078125 L 3.34375 -17.34375 C 5.46875 -17.851562 7.097656 -17.835938 8.234375 -17.296875 C 9.378906 -16.765625 10.164062 -15.601562 10.59375 -13.8125 C 10.894531 -12.507812 10.894531 -11.425781 10.59375 -10.5625 C 10.289062 -9.707031 9.675781 -9.015625 8.75 -8.484375 L 14.578125 -3.453125 Z M 4.578125 -9.8125 C 5.367188 -10 5.972656 -10.210938 6.390625 -10.453125 C 6.816406 -10.703125 7.09375 -11.023438 7.21875 -11.421875 C 7.351562 -11.816406 7.34375 -12.34375 7.1875 -13 C 7.03125 -13.613281 6.8125 -14.0625 6.53125 -14.34375 C 6.25 -14.625 5.867188 -14.769531 5.390625 -14.78125 C 4.921875 -14.789062 4.28125 -14.695312 3.46875 -14.5 L 2.09375 -14.171875 L 3.203125 -9.484375 Z M 4.578125 -9.8125 "/></g></g></g><g fill="#000000" fill-opacity="1"><g transform="translate(174.906789, 97.403701)"><g><path d="M 11.53125 -4.40625 L 4.984375 -4.171875 L 3.734375 -0.140625 L 0.0625 0 L 5.5 -16.3125 L 10.234375 -16.484375 L 16.765625 -0.609375 L 13.03125 -0.46875 Z M 10.40625 -7.3125 L 8.09375 -13.3125 L 7.8125 -13.296875 L 5.90625 -7.140625 Z M 10.40625 -7.3125 "/></g></g></g><g fill="#000000" fill-opacity="1"><g transform="translate(193.365005, 96.715501)"><g><path d="M 4.75 -15.5 L 10.390625 -14.421875 L 11.328125 -5 L 11.453125 -4.984375 L 15.875 -13.375 L 21.34375 -12.34375 L 18.34375 3.484375 L 14.9375 2.84375 L 17.296875 -9.609375 L 17.15625 -9.640625 L 12.3125 -0.765625 L 8.84375 -1.421875 L 7.625 -11.453125 L 7.484375 -11.484375 L 5.125 0.96875 L 1.75 0.328125 Z M 4.75 -15.5 "/></g></g></g><g fill="#000000" fill-opacity="1"><g transform="translate(214.973623, 101.213398)"><g><path d="M 12.296875 1.015625 L 6.296875 -1.609375 L 3.421875 1.5 L 0.0625 0.03125 L 12.015625 -12.328125 L 16.359375 -10.4375 L 15.375 6.71875 L 11.953125 5.21875 Z M 12.53125 -2.078125 L 13.046875 -8.5 L 12.796875 -8.609375 L 8.40625 -3.875 Z M 12.53125 -2.078125 "/></g></g></g><g fill="#000000" fill-opacity="1"><g transform="translate(231.972915, 108.981806)"><g><path d="M 7.046875 5.125 L 6.15625 5.40625 C 6.382812 5.53125 6.550781 5.628906 6.65625 5.703125 C 7.195312 6.078125 7.523438 6.488281 7.640625 6.9375 C 7.765625 7.382812 7.65625 7.851562 7.3125 8.34375 C 6.445312 9.601562 4.859375 9.4375 2.546875 7.84375 C 2.140625 7.550781 1.6875 7.171875 1.1875 6.703125 L 1.984375 5.546875 C 2.335938 5.828125 2.707031 6.101562 3.09375 6.375 C 3.488281 6.644531 3.84375 6.8125 4.15625 6.875 C 4.46875 6.945312 4.695312 6.867188 4.84375 6.640625 C 5.0625 6.328125 4.957031 6.019531 4.53125 5.71875 C 4.34375 5.59375 4.066406 5.460938 3.703125 5.328125 L 3.59375 4.359375 L 5.390625 3.734375 C 4.160156 2.492188 3.53125 1.117188 3.5 -0.390625 C 3.476562 -1.910156 4.203125 -3.734375 5.671875 -5.859375 C 7.359375 -8.304688 9.113281 -9.675781 10.9375 -9.96875 C 12.757812 -10.269531 14.707031 -9.707031 16.78125 -8.28125 C 18.019531 -7.425781 18.945312 -6.570312 19.5625 -5.71875 L 17.84375 -3.21875 C 17.175781 -4.125 16.3125 -4.941406 15.25 -5.671875 C 14.425781 -6.234375 13.675781 -6.546875 13 -6.609375 C 12.320312 -6.679688 11.644531 -6.488281 10.96875 -6.03125 C 10.300781 -5.570312 9.59375 -4.800781 8.84375 -3.71875 C 8.0625 -2.582031 7.570312 -1.617188 7.375 -0.828125 C 7.1875 -0.046875 7.25 0.632812 7.5625 1.21875 C 7.875 1.800781 8.441406 2.375 9.265625 2.9375 C 10.378906 3.707031 11.53125 4.25 12.71875 4.5625 L 11.015625 7.046875 C 10.492188 6.929688 9.910156 6.726562 9.265625 6.4375 C 8.617188 6.144531 7.992188 5.789062 7.390625 5.375 Z M 7.046875 5.125 "/></g></g></g><g fill="#000000" fill-opacity="1"><g transform="translate(245.029506, 118.024136)"><g><path d="M 11.03125 5.53125 L 6.4375 0.859375 L 2.625 2.65625 L 0.046875 0.046875 L 15.75 -6.96875 L 19.0625 -3.578125 L 11.765625 11.96875 L 9.140625 9.3125 Z M 12.40625 2.75 L 15.28125 -3.015625 L 15.078125 -3.21875 L 9.25 -0.453125 Z M 19.765625 -4.4375 C 19.367188 -4.84375 19.070312 -5.222656 18.875 -5.578125 C 18.6875 -5.929688 18.539062 -6.328125 18.4375 -6.765625 C 18.226562 -7.515625 18.003906 -8.007812 17.765625 -8.25 C 17.546875 -8.488281 17.304688 -8.597656 17.046875 -8.578125 C 16.796875 -8.566406 16.5 -8.425781 16.15625 -8.15625 L 14.703125 -9.890625 C 15.484375 -10.546875 16.296875 -10.875 17.140625 -10.875 C 17.984375 -10.882812 18.734375 -10.554688 19.390625 -9.890625 C 19.722656 -9.554688 19.960938 -9.226562 20.109375 -8.90625 C 20.253906 -8.59375 20.378906 -8.207031 20.484375 -7.75 C 20.648438 -7.039062 20.867188 -6.550781 21.140625 -6.28125 C 21.546875 -5.875 22.082031 -5.929688 22.75 -6.453125 L 24.203125 -4.71875 C 23.410156 -4.0625 22.613281 -3.707031 21.8125 -3.65625 C 21.007812 -3.601562 20.328125 -3.863281 19.765625 -4.4375 Z M 19.765625 -4.4375 "/></g></g></g><g fill="#000000" fill-opacity="1"><g transform="translate(257.936299, 131.377638)"><g><path d="M 4.453125 7.421875 C 3.566406 6.035156 3.046875 4.765625 2.890625 3.609375 C 2.742188 2.453125 3.023438 1.3125 3.734375 0.1875 C 4.441406 -0.925781 5.695312 -2.054688 7.5 -3.203125 C 9.300781 -4.359375 10.859375 -5.023438 12.171875 -5.203125 C 13.492188 -5.378906 14.644531 -5.148438 15.625 -4.515625 C 16.601562 -3.890625 17.535156 -2.882812 18.421875 -1.5 C 19.316406 -0.101562 19.84375 1.164062 20 2.3125 C 20.15625 3.46875 19.875 4.601562 19.15625 5.71875 C 18.4375 6.832031 17.175781 7.96875 15.375 9.125 C 13.570312 10.269531 12.015625 10.929688 10.703125 11.109375 C 9.398438 11.296875 8.253906 11.078125 7.265625 10.453125 C 6.285156 9.828125 5.347656 8.816406 4.453125 7.421875 Z M 6.953125 5.828125 C 7.484375 6.660156 8.03125 7.203125 8.59375 7.453125 C 9.15625 7.703125 9.804688 7.707031 10.546875 7.46875 C 11.285156 7.238281 12.234375 6.753906 13.390625 6.015625 C 14.546875 5.273438 15.390625 4.613281 15.921875 4.03125 C 16.460938 3.457031 16.742188 2.859375 16.765625 2.234375 C 16.785156 1.609375 16.53125 0.878906 16 0.046875 C 15.476562 -0.773438 14.925781 -1.304688 14.34375 -1.546875 C 13.757812 -1.796875 13.09375 -1.796875 12.34375 -1.546875 C 11.601562 -1.296875 10.65625 -0.800781 9.5 -0.0625 C 8.34375 0.675781 7.5 1.328125 6.96875 1.890625 C 6.4375 2.453125 6.164062 3.039062 6.15625 3.65625 C 6.15625 4.269531 6.421875 4.992188 6.953125 5.828125 Z M 6.953125 5.828125 "/></g></g></g><g fill="#000000" fill-opacity="1"><g transform="translate(87.697729, 216.423443)"><g><path d="M -4.03125 1.015625 C -4.207031 0.429688 -4.335938 -0.132812 -4.421875 -0.6875 L -1.890625 -1.453125 C -1.828125 -0.972656 -1.722656 -0.503906 -1.578125 -0.046875 C -1.335938 0.742188 -0.945312 1.226562 -0.40625 1.40625 C 0.125 1.582031 0.828125 1.539062 1.703125 1.28125 L 15.140625 -2.796875 L 16.109375 0.390625 L 2.53125 4.5 C 0.863281 5.007812 -0.519531 4.957031 -1.625 4.34375 C -2.738281 3.726562 -3.539062 2.617188 -4.03125 1.015625 Z M -4.03125 1.015625 "/></g></g></g><g fill="#000000" fill-opacity="1"><g transform="translate(92.355054, 230.628592)"><g><path d="M 3.671875 7.375 C 2.929688 5.988281 2.53125 4.742188 2.46875 3.640625 C 2.40625 2.535156 2.753906 1.476562 3.515625 0.46875 C 4.285156 -0.53125 5.5625 -1.503906 7.34375 -2.453125 C 9.132812 -3.410156 10.660156 -3.921875 11.921875 -3.984375 C 13.179688 -4.054688 14.25 -3.757812 15.125 -3.09375 C 16.007812 -2.425781 16.820312 -1.398438 17.5625 -0.015625 C 18.300781 1.367188 18.695312 2.613281 18.75 3.71875 C 18.8125 4.820312 18.457031 5.875 17.6875 6.875 C 16.925781 7.875 15.648438 8.851562 13.859375 9.8125 C 12.078125 10.757812 10.554688 11.269531 9.296875 11.34375 C 8.035156 11.414062 6.96875 11.117188 6.09375 10.453125 C 5.21875 9.785156 4.410156 8.757812 3.671875 7.375 Z M 6.140625 6.0625 C 6.578125 6.882812 7.050781 7.4375 7.5625 7.71875 C 8.082031 8.007812 8.695312 8.066406 9.40625 7.890625 C 10.125 7.710938 11.0625 7.320312 12.21875 6.71875 C 13.375 6.09375 14.226562 5.53125 14.78125 5.03125 C 15.332031 4.539062 15.640625 3.992188 15.703125 3.390625 C 15.765625 2.796875 15.578125 2.085938 15.140625 1.265625 C 14.703125 0.441406 14.21875 -0.101562 13.6875 -0.375 C 13.164062 -0.644531 12.539062 -0.695312 11.8125 -0.53125 C 11.09375 -0.363281 10.15625 0.03125 9 0.65625 C 7.84375 1.257812 6.992188 1.8125 6.453125 2.3125 C 5.910156 2.820312 5.613281 3.363281 5.5625 3.9375 C 5.507812 4.519531 5.703125 5.226562 6.140625 6.0625 Z M 6.140625 6.0625 "/></g></g></g><g fill="#000000" fill-opacity="1"><g transform="translate(105.110191, 252.31252)"><g><path d="M 10.234375 5.71875 L 6.078125 1.09375 L 2.375 2.640625 L 0.046875 0.046875 L 15.234375 -5.921875 L 18.234375 -2.578125 L 10.640625 11.84375 L 8.265625 9.203125 Z M 11.640625 3.125 L 14.625 -2.203125 L 14.453125 -2.40625 L 8.796875 -0.046875 Z M 18.9375 -3.359375 C 18.582031 -3.765625 18.316406 -4.140625 18.140625 -4.484375 C 17.972656 -4.828125 17.851562 -5.207031 17.78125 -5.625 C 17.613281 -6.351562 17.425781 -6.835938 17.21875 -7.078125 C 17.007812 -7.304688 16.78125 -7.421875 16.53125 -7.421875 C 16.289062 -7.421875 16.003906 -7.296875 15.671875 -7.046875 L 14.359375 -8.75 C 15.148438 -9.34375 15.941406 -9.625 16.734375 -9.59375 C 17.523438 -9.5625 18.222656 -9.210938 18.828125 -8.546875 C 19.117188 -8.222656 19.328125 -7.90625 19.453125 -7.59375 C 19.585938 -7.28125 19.691406 -6.90625 19.765625 -6.46875 C 19.898438 -5.789062 20.085938 -5.316406 20.328125 -5.046875 C 20.691406 -4.640625 21.203125 -4.671875 21.859375 -5.140625 L 23.171875 -3.453125 C 22.398438 -2.867188 21.628906 -2.566406 20.859375 -2.546875 C 20.085938 -2.523438 19.445312 -2.796875 18.9375 -3.359375 Z M 18.9375 -3.359375 "/></g></g></g><g fill="#000000" fill-opacity="1"><g transform="translate(122.350565, 269.971421)"><g><path d="M 6.671875 4.796875 C 5.378906 3.921875 4.445312 3.007812 3.875 2.0625 C 3.300781 1.113281 3.117188 0.0195312 3.328125 -1.21875 C 3.546875 -2.46875 4.21875 -3.929688 5.34375 -5.609375 C 6.488281 -7.285156 7.597656 -8.445312 8.671875 -9.09375 C 9.742188 -9.75 10.828125 -9.988281 11.921875 -9.8125 C 13.015625 -9.632812 14.207031 -9.109375 15.5 -8.234375 C 16.800781 -7.347656 17.738281 -6.429688 18.3125 -5.484375 C 18.882812 -4.535156 19.066406 -3.441406 18.859375 -2.203125 C 18.648438 -0.960938 17.972656 0.492188 16.828125 2.171875 C 15.703125 3.847656 14.597656 5.015625 13.515625 5.671875 C 12.441406 6.328125 11.359375 6.566406 10.265625 6.390625 C 9.171875 6.210938 7.972656 5.679688 6.671875 4.796875 Z M 8.25 2.46875 C 9.03125 3 9.710938 3.269531 10.296875 3.28125 C 10.878906 3.289062 11.445312 3.050781 12 2.5625 C 12.550781 2.082031 13.191406 1.300781 13.921875 0.21875 C 14.660156 -0.863281 15.15625 -1.753906 15.40625 -2.453125 C 15.664062 -3.148438 15.6875 -3.773438 15.46875 -4.328125 C 15.25 -4.890625 14.75 -5.4375 13.96875 -5.96875 C 13.207031 -6.488281 12.53125 -6.742188 11.9375 -6.734375 C 11.34375 -6.734375 10.765625 -6.488281 10.203125 -6 C 9.640625 -5.507812 8.988281 -4.722656 8.25 -3.640625 C 7.519531 -2.554688 7.03125 -1.664062 6.78125 -0.96875 C 6.539062 -0.28125 6.53125 0.332031 6.75 0.875 C 6.976562 1.414062 7.476562 1.945312 8.25 2.46875 Z M 8.25 2.46875 "/></g></g></g><g fill="#000000" fill-opacity="1"><g transform="translate(143.440198, 282.723359)"><g/></g></g><g fill="#000000" fill-opacity="1"><g transform="translate(156.232305, 287.866684)"><g><path d="M 5.171875 -14.5 L 10.25 -13.296875 C 11.726562 -12.941406 12.851562 -12.492188 13.625 -11.953125 C 14.394531 -11.410156 14.875 -10.726562 15.0625 -9.90625 C 15.257812 -9.082031 15.210938 -8.0625 14.921875 -6.84375 C 14.609375 -5.53125 14.164062 -4.539062 13.59375 -3.875 C 13.019531 -3.21875 12.265625 -2.820312 11.328125 -2.6875 C 10.398438 -2.5625 9.234375 -2.664062 7.828125 -3 L 6 -3.4375 L 4.90625 1.15625 L 1.65625 0.390625 Z M 8.015625 -5.703125 C 8.765625 -5.523438 9.367188 -5.457031 9.828125 -5.5 C 10.285156 -5.550781 10.648438 -5.742188 10.921875 -6.078125 C 11.203125 -6.410156 11.421875 -6.910156 11.578125 -7.578125 C 11.796875 -8.523438 11.726562 -9.234375 11.375 -9.703125 C 11.03125 -10.179688 10.3125 -10.546875 9.21875 -10.796875 L 7.8125 -11.140625 L 6.609375 -6.046875 Z M 8.015625 -5.703125 "/></g></g></g><g fill="#000000" fill-opacity="1"><g transform="translate(178.373059, 292.205523)"><g><path d="M 11.09375 -3.765625 L 4.890625 -3.78125 L 3.546875 0.015625 L 0.0625 0 L 5.796875 -15.28125 L 10.296875 -15.28125 L 15.921875 0.03125 L 12.375 0.03125 Z M 10.125 -6.546875 L 8.15625 -12.34375 L 7.890625 -12.34375 L 5.859375 -6.546875 Z M 10.125 -6.546875 "/></g></g></g><g fill="#000000" fill-opacity="1"><g transform="translate(203.012007, 291.21786)"><g><path d="M 7.828125 -1.671875 C 5.734375 -1.160156 4.082031 -1.164062 2.875 -1.6875 C 1.664062 -2.21875 0.832031 -3.425781 0.375 -5.3125 L -2.046875 -15.25 L 1.21875 -16.046875 L 3.5625 -6.46875 C 3.789062 -5.53125 4.171875 -4.890625 4.703125 -4.546875 C 5.234375 -4.210938 6.0625 -4.1875 7.1875 -4.46875 C 8.320312 -4.738281 9.050781 -5.15625 9.375 -5.71875 C 9.695312 -6.28125 9.75 -7.015625 9.53125 -7.921875 L 7.1875 -17.5 L 10.421875 -18.28125 L 12.84375 -8.34375 C 13.28125 -6.5625 13.066406 -5.128906 12.203125 -4.046875 C 11.347656 -2.972656 9.890625 -2.179688 7.828125 -1.671875 Z M 7.828125 -1.671875 "/></g></g></g><g fill="#000000" fill-opacity="1"><g transform="translate(226.554882, 284.277661)"><g><path d="M 8.703125 -7.515625 L 9.984375 -4.90625 L 1.53125 -0.75 L -5.21875 -14.46875 L -2.21875 -15.953125 L 3.25 -4.84375 Z M 8.703125 -7.515625 "/></g></g></g><g fill="#000000" fill-opacity="1"><g transform="translate(244.328, 274.782752)"><g><path d="M 6.546875 -4.984375 C 5.328125 -4.003906 4.179688 -3.378906 3.109375 -3.109375 C 2.035156 -2.835938 0.9375 -2.984375 -0.1875 -3.546875 C -1.320312 -4.109375 -2.523438 -5.175781 -3.796875 -6.75 C -5.066406 -8.332031 -5.851562 -9.734375 -6.15625 -10.953125 C -6.46875 -12.179688 -6.375 -13.289062 -5.875 -14.28125 C -5.382812 -15.28125 -4.53125 -16.269531 -3.3125 -17.25 C -2.09375 -18.226562 -0.945312 -18.847656 0.125 -19.109375 C 1.195312 -19.378906 2.296875 -19.234375 3.421875 -18.671875 C 4.546875 -18.109375 5.742188 -17.035156 7.015625 -15.453125 C 8.285156 -13.878906 9.078125 -12.476562 9.390625 -11.25 C 9.703125 -10.03125 9.609375 -8.925781 9.109375 -7.9375 C 8.617188 -6.945312 7.765625 -5.960938 6.546875 -4.984375 Z M 4.796875 -7.171875 C 5.523438 -7.753906 5.976562 -8.328125 6.15625 -8.890625 C 6.34375 -9.453125 6.28125 -10.066406 5.96875 -10.734375 C 5.664062 -11.410156 5.101562 -12.253906 4.28125 -13.265625 C 3.457031 -14.285156 2.75 -15.019531 2.15625 -15.46875 C 1.570312 -15.914062 0.976562 -16.113281 0.375 -16.0625 C -0.21875 -16.007812 -0.878906 -15.691406 -1.609375 -15.109375 C -2.335938 -14.523438 -2.785156 -13.945312 -2.953125 -13.375 C -3.117188 -12.8125 -3.050781 -12.1875 -2.75 -11.5 C -2.445312 -10.820312 -1.882812 -9.972656 -1.0625 -8.953125 C -0.238281 -7.941406 0.46875 -7.21875 1.0625 -6.78125 C 1.65625 -6.34375 2.242188 -6.148438 2.828125 -6.203125 C 3.410156 -6.253906 4.066406 -6.578125 4.796875 -7.171875 Z M 4.796875 -7.171875 "/></g></g></g><g fill="#000000" fill-opacity="1"><g transform="translate(262.702827, 258.358842)"><g/></g></g><g fill="#000000" fill-opacity="1"><g transform="translate(271.026976, 247.811686)"><g><path d="M -11.96875 -9.671875 L -10.171875 -12.484375 L 2.71875 -4.25 L 0.921875 -1.4375 Z M -11.96875 -9.671875 "/></g></g></g><g fill="#000000" fill-opacity="1"><g transform="translate(278.390752, 235.247436)"><g><path d="M -13.234375 -7.875 L -11.859375 -10.921875 L 2.078125 -4.59375 L 0.703125 -1.546875 Z M -13.234375 -7.875 "/></g></g></g><g fill="#000000" fill-opacity="1"><g transform="translate(283.867078, 221.80826)"><g/></g></g><g fill="#ff3d83" fill-opacity="1"><g transform="translate(142.009243, 243.11641)"><g><path d="M 6.40625 -8.1875 C 7.269531 -8.726562 8.195312 -9.6875 9.1875 -11.0625 C 10.1875 -12.4375 11.132812 -14.046875 12.03125 -15.890625 C 12.9375 -17.734375 13.675781 -19.640625 14.25 -21.609375 C 14.832031 -23.578125 15.125 -25.429688 15.125 -27.171875 C 15.125 -28.867188 14.816406 -30.132812 14.203125 -30.96875 C 13.585938 -31.800781 12.757812 -32.21875 11.71875 -32.21875 C 10.59375 -32.21875 9.695312 -31.742188 9.03125 -30.796875 C 8.363281 -29.859375 8.03125 -28.453125 8.03125 -26.578125 C 8.03125 -25.671875 7.8125 -24.910156 7.375 -24.296875 C 6.800781 -23.609375 6.097656 -23.265625 5.265625 -23.265625 C 4.578125 -23.265625 3.914062 -23.546875 3.28125 -24.109375 C 2.644531 -24.671875 2.328125 -25.492188 2.328125 -26.578125 C 2.328125 -30.015625 3.191406 -32.695312 4.921875 -34.625 C 6.660156 -36.5625 8.925781 -37.53125 11.71875 -37.53125 C 14.601562 -37.53125 16.867188 -36.648438 18.515625 -34.890625 C 20.160156 -33.140625 20.984375 -30.582031 20.984375 -27.21875 C 20.984375 -25.09375 20.601562 -22.765625 19.84375 -20.234375 C 19.082031 -17.703125 18.035156 -15.195312 16.703125 -12.71875 C 15.367188 -10.238281 13.816406 -7.96875 12.046875 -5.90625 C 13.703125 -5.21875 15.144531 -4.875 16.375 -4.875 C 18.476562 -4.875 19.835938 -6.234375 20.453125 -8.953125 C 20.628906 -9.816406 20.988281 -10.445312 21.53125 -10.84375 C 22.070312 -11.238281 22.632812 -11.4375 23.21875 -11.4375 C 23.9375 -11.4375 24.578125 -11.191406 25.140625 -10.703125 C 25.703125 -10.222656 25.984375 -9.546875 25.984375 -8.671875 C 25.984375 -7.191406 25.609375 -5.753906 24.859375 -4.359375 C 24.117188 -2.972656 23.109375 -1.828125 21.828125 -0.921875 C 20.546875 -0.015625 19.070312 0.4375 17.40625 0.4375 C 15.957031 0.4375 14.632812 0.273438 13.4375 -0.046875 C 12.25 -0.378906 11.25 -0.707031 10.4375 -1.03125 C 9.625 -1.351562 9.019531 -1.515625 8.625 -1.515625 C 8.113281 -1.515625 7.632812 -1.378906 7.1875 -1.109375 C 6.738281 -0.835938 6.273438 -0.566406 5.796875 -0.296875 C 5.328125 -0.0234375 4.804688 0.109375 4.234375 0.109375 C 3.359375 0.109375 2.640625 -0.207031 2.078125 -0.84375 C 1.523438 -1.476562 1.25 -2.207031 1.25 -3.03125 C 1.25 -3.863281 1.457031 -4.523438 1.875 -5.015625 C 2.289062 -5.503906 2.882812 -5.984375 3.65625 -6.453125 C 4.4375 -6.921875 5.351562 -7.5 6.40625 -8.1875 Z M 6.40625 -8.1875 "/></g></g></g><g fill="#ff3d83" fill-opacity="1"><g transform="translate(169.234931, 243.11641)"><g/></g></g><g fill="#ff3d83" fill-opacity="1"><g transform="translate(182.793547, 243.11641)"><g><path d="M 44.859375 -14.375 C 45.066406 -15.019531 45.394531 -15.492188 45.84375 -15.796875 C 46.300781 -16.109375 46.765625 -16.265625 47.234375 -16.265625 C 47.816406 -16.265625 48.320312 -16.066406 48.75 -15.671875 C 49.1875 -15.273438 49.40625 -14.71875 49.40625 -14 C 49.40625 -13.5625 49.332031 -13.144531 49.1875 -12.75 C 47.632812 -8.226562 45.925781 -4.878906 44.0625 -2.703125 C 42.195312 -0.535156 40.035156 0.546875 37.578125 0.546875 C 35.378906 0.546875 33.554688 -0.3125 32.109375 -2.03125 C 30.660156 -3.75 29.9375 -6.414062 29.9375 -10.03125 C 29.9375 -11.476562 29.988281 -12.90625 30.09375 -14.3125 C 29.195312 -14.207031 28.257812 -14.109375 27.28125 -14.015625 C 26.300781 -13.929688 25.320312 -13.851562 24.34375 -13.78125 C 22.175781 -9.257812 19.878906 -5.710938 17.453125 -3.140625 C 15.035156 -0.578125 12.328125 0.703125 9.328125 0.703125 C 7.117188 0.703125 5.328125 0.21875 3.953125 -0.75 C 2.578125 -1.726562 1.890625 -2.796875 1.890625 -3.953125 C 1.890625 -4.753906 2.148438 -5.414062 2.671875 -5.9375 C 3.203125 -6.457031 3.832031 -6.71875 4.5625 -6.71875 C 5.175781 -6.71875 5.707031 -6.535156 6.15625 -6.171875 C 6.601562 -5.816406 7.070312 -5.457031 7.5625 -5.09375 C 8.050781 -4.738281 8.640625 -4.5625 9.328125 -4.5625 C 11.566406 -4.5625 14.351562 -7.539062 17.6875 -13.5 L 15.671875 -13.5 C 14.515625 -13.5 13.644531 -13.769531 13.0625 -14.3125 C 12.488281 -14.851562 12.203125 -15.46875 12.203125 -16.15625 C 12.203125 -16.769531 12.472656 -17.347656 13.015625 -17.890625 C 13.554688 -18.429688 14.332031 -18.703125 15.34375 -18.703125 C 16.175781 -18.703125 17 -18.703125 17.8125 -18.703125 C 18.625 -18.703125 19.429688 -18.722656 20.234375 -18.765625 C 20.335938 -18.984375 20.429688 -19.195312 20.515625 -19.40625 C 20.609375 -19.625 20.710938 -19.863281 20.828125 -20.125 C 22.378906 -23.769531 23.75 -26.832031 24.9375 -29.3125 C 26.132812 -31.789062 27.257812 -33.785156 28.3125 -35.296875 C 29.363281 -36.816406 30.4375 -37.910156 31.53125 -38.578125 C 32.632812 -39.253906 33.875 -39.59375 35.25 -39.59375 C 37.78125 -39.59375 39.046875 -38.4375 39.046875 -36.125 C 39.046875 -35.21875 38.890625 -33.804688 38.578125 -31.890625 C 38.273438 -29.972656 37.914062 -27.75 37.5 -25.21875 C 37.082031 -22.6875 36.71875 -20.007812 36.40625 -17.1875 C 36.101562 -14.375 35.953125 -11.609375 35.953125 -8.890625 C 35.953125 -7.265625 36.175781 -6.144531 36.625 -5.53125 C 37.082031 -4.914062 37.601562 -4.609375 38.1875 -4.609375 C 38.875 -4.609375 39.628906 -5.09375 40.453125 -6.0625 C 41.285156 -7.039062 42.085938 -8.28125 42.859375 -9.78125 C 43.640625 -11.289062 44.304688 -12.820312 44.859375 -14.375 Z M 26.625 -19.140625 C 27.96875 -19.253906 29.304688 -19.414062 30.640625 -19.625 C 31.003906 -22.195312 31.398438 -24.515625 31.828125 -26.578125 C 32.265625 -28.640625 32.617188 -30.273438 32.890625 -31.484375 C 33.160156 -32.691406 33.1875 -33.296875 32.96875 -33.296875 C 32.757812 -33.296875 32.375 -32.691406 31.8125 -31.484375 C 31.25 -30.273438 30.53125 -28.613281 29.65625 -26.5 C 28.789062 -24.382812 27.78125 -21.929688 26.625 -19.140625 Z M 26.625 -19.140625 "/></g></g></g></svg>